<mxfile host="Electron" agent="Mozilla/5.0 (Windows NT 10.0; Win64; x64) AppleWebKit/537.36 (KHTML, like Gecko) draw.io/27.0.9 Chrome/134.0.6998.205 Electron/35.4.0 Safari/537.36" version="27.0.9">
  <diagram name="페이지-1" id="-ZLnYfSBQmYX6sYHhc2G">
    <mxGraphModel dx="1426" dy="849" grid="1" gridSize="10" guides="1" tooltips="1" connect="1" arrows="1" fold="1" page="1" pageScale="1" pageWidth="827" pageHeight="1169" math="0" shadow="0">
      <root>
        <mxCell id="0" />
        <mxCell id="1" parent="0" />
        <mxCell id="QhaAmGKr-HtIMkLcAXi7-7" value="" style="edgeStyle=orthogonalEdgeStyle;rounded=0;orthogonalLoop=1;jettySize=auto;html=1;" parent="1" source="QhaAmGKr-HtIMkLcAXi7-1" target="QhaAmGKr-HtIMkLcAXi7-2" edge="1">
          <mxGeometry relative="1" as="geometry">
            <Array as="points">
              <mxPoint x="190" y="250" />
              <mxPoint x="190" y="210" />
            </Array>
          </mxGeometry>
        </mxCell>
        <mxCell id="QhaAmGKr-HtIMkLcAXi7-8" style="edgeStyle=orthogonalEdgeStyle;rounded=0;orthogonalLoop=1;jettySize=auto;html=1;exitX=1;exitY=0.5;exitDx=0;exitDy=0;entryX=0;entryY=0.5;entryDx=0;entryDy=0;" parent="1" source="QhaAmGKr-HtIMkLcAXi7-1" target="QhaAmGKr-HtIMkLcAXi7-3" edge="1">
          <mxGeometry relative="1" as="geometry">
            <Array as="points">
              <mxPoint x="190" y="250" />
              <mxPoint x="190" y="130" />
            </Array>
          </mxGeometry>
        </mxCell>
        <mxCell id="QhaAmGKr-HtIMkLcAXi7-9" style="edgeStyle=orthogonalEdgeStyle;rounded=0;orthogonalLoop=1;jettySize=auto;html=1;exitX=1;exitY=0.633;exitDx=0;exitDy=0;entryX=0;entryY=0.5;entryDx=0;entryDy=0;exitPerimeter=0;" parent="1" source="QhaAmGKr-HtIMkLcAXi7-1" target="QhaAmGKr-HtIMkLcAXi7-4" edge="1">
          <mxGeometry relative="1" as="geometry">
            <mxPoint x="140" y="320" as="sourcePoint" />
            <Array as="points">
              <mxPoint x="140" y="250" />
              <mxPoint x="190" y="250" />
              <mxPoint x="190" y="450" />
            </Array>
          </mxGeometry>
        </mxCell>
        <mxCell id="QhaAmGKr-HtIMkLcAXi7-10" style="edgeStyle=orthogonalEdgeStyle;rounded=0;orthogonalLoop=1;jettySize=auto;html=1;entryX=0;entryY=0.5;entryDx=0;entryDy=0;exitX=1;exitY=0.5;exitDx=0;exitDy=0;" parent="1" source="QhaAmGKr-HtIMkLcAXi7-1" target="QhaAmGKr-HtIMkLcAXi7-6" edge="1">
          <mxGeometry relative="1" as="geometry">
            <mxPoint x="140" y="320" as="sourcePoint" />
            <Array as="points">
              <mxPoint x="190" y="250" />
              <mxPoint x="190" y="1610" />
            </Array>
          </mxGeometry>
        </mxCell>
        <mxCell id="QhaAmGKr-HtIMkLcAXi7-23" value="" style="edgeStyle=orthogonalEdgeStyle;rounded=0;orthogonalLoop=1;jettySize=auto;html=1;exitX=1;exitY=0.617;exitDx=0;exitDy=0;exitPerimeter=0;" parent="1" source="QhaAmGKr-HtIMkLcAXi7-1" target="QhaAmGKr-HtIMkLcAXi7-22" edge="1">
          <mxGeometry relative="1" as="geometry">
            <mxPoint x="140" y="320" as="sourcePoint" />
            <Array as="points">
              <mxPoint x="140" y="250" />
              <mxPoint x="190" y="250" />
              <mxPoint x="190" y="700" />
            </Array>
          </mxGeometry>
        </mxCell>
        <mxCell id="QhaAmGKr-HtIMkLcAXi7-1" value="메인페이지" style="rounded=0;whiteSpace=wrap;html=1;" parent="1" vertex="1">
          <mxGeometry x="40" y="220" width="100" height="60" as="geometry" />
        </mxCell>
        <mxCell id="QhaAmGKr-HtIMkLcAXi7-13" value="" style="edgeStyle=orthogonalEdgeStyle;rounded=0;orthogonalLoop=1;jettySize=auto;html=1;entryX=0;entryY=0.5;entryDx=0;entryDy=0;" parent="1" source="QhaAmGKr-HtIMkLcAXi7-2" target="QhaAmGKr-HtIMkLcAXi7-12" edge="1">
          <mxGeometry relative="1" as="geometry">
            <mxPoint x="560" y="297" as="targetPoint" />
            <Array as="points">
              <mxPoint x="440" y="210" />
              <mxPoint x="440" y="290" />
            </Array>
          </mxGeometry>
        </mxCell>
        <mxCell id="QhaAmGKr-HtIMkLcAXi7-15" value="" style="edgeStyle=orthogonalEdgeStyle;rounded=0;orthogonalLoop=1;jettySize=auto;html=1;" parent="1" source="QhaAmGKr-HtIMkLcAXi7-2" target="QhaAmGKr-HtIMkLcAXi7-14" edge="1">
          <mxGeometry relative="1" as="geometry" />
        </mxCell>
        <mxCell id="QhaAmGKr-HtIMkLcAXi7-16" value="" style="edgeStyle=orthogonalEdgeStyle;rounded=0;orthogonalLoop=1;jettySize=auto;html=1;" parent="1" source="QhaAmGKr-HtIMkLcAXi7-2" target="QhaAmGKr-HtIMkLcAXi7-14" edge="1">
          <mxGeometry relative="1" as="geometry" />
        </mxCell>
        <mxCell id="QhaAmGKr-HtIMkLcAXi7-18" value="" style="edgeStyle=orthogonalEdgeStyle;rounded=0;orthogonalLoop=1;jettySize=auto;html=1;entryX=0;entryY=0.5;entryDx=0;entryDy=0;" parent="1" target="QhaAmGKr-HtIMkLcAXi7-17" edge="1">
          <mxGeometry relative="1" as="geometry">
            <mxPoint x="380" y="210" as="sourcePoint" />
            <Array as="points">
              <mxPoint x="380" y="211" />
              <mxPoint x="440" y="211" />
              <mxPoint x="440" y="130" />
            </Array>
          </mxGeometry>
        </mxCell>
        <mxCell id="QhaAmGKr-HtIMkLcAXi7-2" value="로그인" style="rounded=0;whiteSpace=wrap;html=1;" parent="1" vertex="1">
          <mxGeometry x="270" y="180" width="120" height="60" as="geometry" />
        </mxCell>
        <mxCell id="QhaAmGKr-HtIMkLcAXi7-3" value="회원가입" style="rounded=0;whiteSpace=wrap;html=1;" parent="1" vertex="1">
          <mxGeometry x="270" y="100" width="120" height="60" as="geometry" />
        </mxCell>
        <mxCell id="QhaAmGKr-HtIMkLcAXi7-21" value="" style="edgeStyle=orthogonalEdgeStyle;rounded=0;orthogonalLoop=1;jettySize=auto;html=1;" parent="1" source="QhaAmGKr-HtIMkLcAXi7-4" target="QhaAmGKr-HtIMkLcAXi7-20" edge="1">
          <mxGeometry relative="1" as="geometry" />
        </mxCell>
        <mxCell id="QhaAmGKr-HtIMkLcAXi7-27" style="edgeStyle=orthogonalEdgeStyle;rounded=0;orthogonalLoop=1;jettySize=auto;html=1;exitX=1;exitY=0.5;exitDx=0;exitDy=0;entryX=0;entryY=0.5;entryDx=0;entryDy=0;" parent="1" source="QhaAmGKr-HtIMkLcAXi7-4" target="QhaAmGKr-HtIMkLcAXi7-26" edge="1">
          <mxGeometry relative="1" as="geometry">
            <Array as="points">
              <mxPoint x="440" y="450" />
              <mxPoint x="440" y="370" />
            </Array>
          </mxGeometry>
        </mxCell>
        <mxCell id="QhaAmGKr-HtIMkLcAXi7-4" value="퀘스트 목록" style="rounded=0;whiteSpace=wrap;html=1;" parent="1" vertex="1">
          <mxGeometry x="270" y="420" width="120" height="60" as="geometry" />
        </mxCell>
        <mxCell id="QhaAmGKr-HtIMkLcAXi7-6" value="고객센터" style="rounded=0;whiteSpace=wrap;html=1;" parent="1" vertex="1">
          <mxGeometry x="270" y="1580" width="120" height="60" as="geometry" />
        </mxCell>
        <mxCell id="QhaAmGKr-HtIMkLcAXi7-11" style="edgeStyle=orthogonalEdgeStyle;rounded=0;orthogonalLoop=1;jettySize=auto;html=1;exitX=0.5;exitY=1;exitDx=0;exitDy=0;" parent="1" edge="1">
          <mxGeometry relative="1" as="geometry">
            <mxPoint x="90" y="350" as="sourcePoint" />
            <mxPoint x="90" y="350" as="targetPoint" />
          </mxGeometry>
        </mxCell>
        <mxCell id="QhaAmGKr-HtIMkLcAXi7-12" value="의뢰자 로그인" style="rounded=0;whiteSpace=wrap;html=1;" parent="1" vertex="1">
          <mxGeometry x="500" y="260" width="120" height="60" as="geometry" />
        </mxCell>
        <mxCell id="QhaAmGKr-HtIMkLcAXi7-14" value="해결사 로그인" style="rounded=0;whiteSpace=wrap;html=1;" parent="1" vertex="1">
          <mxGeometry x="500" y="180" width="120" height="60" as="geometry" />
        </mxCell>
        <mxCell id="QhaAmGKr-HtIMkLcAXi7-17" value="관리자 로그인" style="rounded=0;whiteSpace=wrap;html=1;" parent="1" vertex="1">
          <mxGeometry x="500" y="100" width="120" height="60" as="geometry" />
        </mxCell>
        <mxCell id="QhaAmGKr-HtIMkLcAXi7-20" value="퀘스트 상세" style="rounded=0;whiteSpace=wrap;html=1;" parent="1" vertex="1">
          <mxGeometry x="500" y="420" width="120" height="60" as="geometry" />
        </mxCell>
        <mxCell id="QhaAmGKr-HtIMkLcAXi7-31" value="" style="edgeStyle=orthogonalEdgeStyle;rounded=0;orthogonalLoop=1;jettySize=auto;html=1;entryX=0;entryY=0.5;entryDx=0;entryDy=0;" parent="1" source="QhaAmGKr-HtIMkLcAXi7-22" target="QhaAmGKr-HtIMkLcAXi7-32" edge="1">
          <mxGeometry relative="1" as="geometry" />
        </mxCell>
        <mxCell id="QhaAmGKr-HtIMkLcAXi7-22" value="마이페이지" style="rounded=0;whiteSpace=wrap;html=1;" parent="1" vertex="1">
          <mxGeometry x="270" y="670" width="120" height="60" as="geometry" />
        </mxCell>
        <mxCell id="QhaAmGKr-HtIMkLcAXi7-26" value="퀘스트 등록" style="rounded=0;whiteSpace=wrap;html=1;" parent="1" vertex="1">
          <mxGeometry x="500" y="340" width="120" height="60" as="geometry" />
        </mxCell>
        <mxCell id="QhaAmGKr-HtIMkLcAXi7-28" value="퀘스트 신청" style="rounded=0;whiteSpace=wrap;html=1;" parent="1" vertex="1">
          <mxGeometry x="500" y="500" width="120" height="60" as="geometry" />
        </mxCell>
        <mxCell id="QhaAmGKr-HtIMkLcAXi7-29" style="edgeStyle=orthogonalEdgeStyle;rounded=0;orthogonalLoop=1;jettySize=auto;html=1;exitX=1;exitY=0.75;exitDx=0;exitDy=0;entryX=0;entryY=0.5;entryDx=0;entryDy=0;" parent="1" source="QhaAmGKr-HtIMkLcAXi7-4" target="QhaAmGKr-HtIMkLcAXi7-28" edge="1">
          <mxGeometry relative="1" as="geometry">
            <mxPoint x="460" y="530" as="sourcePoint" />
            <mxPoint x="570" y="450" as="targetPoint" />
            <Array as="points">
              <mxPoint x="390" y="450" />
              <mxPoint x="440" y="450" />
              <mxPoint x="440" y="530" />
            </Array>
          </mxGeometry>
        </mxCell>
        <mxCell id="QhaAmGKr-HtIMkLcAXi7-30" value="대시보드" style="rounded=0;whiteSpace=wrap;html=1;" parent="1" vertex="1">
          <mxGeometry x="500" y="584.5" width="120" height="60" as="geometry" />
        </mxCell>
        <mxCell id="QhaAmGKr-HtIMkLcAXi7-32" value="개인정보 수정" style="rounded=0;whiteSpace=wrap;html=1;" parent="1" vertex="1">
          <mxGeometry x="500" y="670" width="120" height="60" as="geometry" />
        </mxCell>
        <mxCell id="QhaAmGKr-HtIMkLcAXi7-35" style="edgeStyle=orthogonalEdgeStyle;rounded=0;orthogonalLoop=1;jettySize=auto;html=1;exitX=1;exitY=0.5;exitDx=0;exitDy=0;entryX=0;entryY=0.5;entryDx=0;entryDy=0;" parent="1" source="QhaAmGKr-HtIMkLcAXi7-33" target="QhaAmGKr-HtIMkLcAXi7-34" edge="1">
          <mxGeometry relative="1" as="geometry" />
        </mxCell>
        <mxCell id="QhaAmGKr-HtIMkLcAXi7-38" style="edgeStyle=orthogonalEdgeStyle;rounded=0;orthogonalLoop=1;jettySize=auto;html=1;exitX=1;exitY=0.5;exitDx=0;exitDy=0;entryX=0;entryY=0.5;entryDx=0;entryDy=0;" parent="1" source="QhaAmGKr-HtIMkLcAXi7-33" target="QhaAmGKr-HtIMkLcAXi7-36" edge="1">
          <mxGeometry relative="1" as="geometry" />
        </mxCell>
        <mxCell id="QhaAmGKr-HtIMkLcAXi7-40" style="edgeStyle=orthogonalEdgeStyle;rounded=0;orthogonalLoop=1;jettySize=auto;html=1;exitX=1;exitY=0.5;exitDx=0;exitDy=0;entryX=0;entryY=0.5;entryDx=0;entryDy=0;" parent="1" source="QhaAmGKr-HtIMkLcAXi7-33" target="QhaAmGKr-HtIMkLcAXi7-37" edge="1">
          <mxGeometry relative="1" as="geometry" />
        </mxCell>
        <mxCell id="QhaAmGKr-HtIMkLcAXi7-33" value="마이 퀘스트" style="rounded=0;whiteSpace=wrap;html=1;" parent="1" vertex="1">
          <mxGeometry x="500" y="760" width="120" height="60" as="geometry" />
        </mxCell>
        <mxCell id="QhaAmGKr-HtIMkLcAXi7-34" value="퀘스트 신청내역" style="rounded=0;whiteSpace=wrap;html=1;" parent="1" vertex="1">
          <mxGeometry x="720" y="670" width="120" height="60" as="geometry" />
        </mxCell>
        <mxCell id="QhaAmGKr-HtIMkLcAXi7-36" value="퀘스트 진행사항" style="rounded=0;whiteSpace=wrap;html=1;" parent="1" vertex="1">
          <mxGeometry x="720" y="760" width="120" height="60" as="geometry" />
        </mxCell>
        <mxCell id="QhaAmGKr-HtIMkLcAXi7-37" value="퀘스트 완료내역" style="rounded=0;whiteSpace=wrap;html=1;" parent="1" vertex="1">
          <mxGeometry x="720" y="850" width="120" height="60" as="geometry" />
        </mxCell>
        <mxCell id="QhaAmGKr-HtIMkLcAXi7-50" style="edgeStyle=orthogonalEdgeStyle;rounded=0;orthogonalLoop=1;jettySize=auto;html=1;exitX=1;exitY=0.5;exitDx=0;exitDy=0;entryX=0;entryY=0.5;entryDx=0;entryDy=0;" parent="1" source="QhaAmGKr-HtIMkLcAXi7-42" target="QhaAmGKr-HtIMkLcAXi7-47" edge="1">
          <mxGeometry relative="1" as="geometry" />
        </mxCell>
        <mxCell id="QhaAmGKr-HtIMkLcAXi7-51" style="edgeStyle=orthogonalEdgeStyle;rounded=0;orthogonalLoop=1;jettySize=auto;html=1;exitX=1;exitY=0.5;exitDx=0;exitDy=0;entryX=0;entryY=0.5;entryDx=0;entryDy=0;" parent="1" source="QhaAmGKr-HtIMkLcAXi7-42" target="QhaAmGKr-HtIMkLcAXi7-48" edge="1">
          <mxGeometry relative="1" as="geometry" />
        </mxCell>
        <mxCell id="QhaAmGKr-HtIMkLcAXi7-52" style="edgeStyle=orthogonalEdgeStyle;rounded=0;orthogonalLoop=1;jettySize=auto;html=1;exitX=1;exitY=0.5;exitDx=0;exitDy=0;entryX=0;entryY=0.5;entryDx=0;entryDy=0;" parent="1" source="QhaAmGKr-HtIMkLcAXi7-42" target="QhaAmGKr-HtIMkLcAXi7-49" edge="1">
          <mxGeometry relative="1" as="geometry" />
        </mxCell>
        <mxCell id="QhaAmGKr-HtIMkLcAXi7-42" value="코인 페이지" style="rounded=0;whiteSpace=wrap;html=1;" parent="1" vertex="1">
          <mxGeometry x="500" y="1030" width="120" height="60" as="geometry" />
        </mxCell>
        <mxCell id="QhaAmGKr-HtIMkLcAXi7-44" value="" style="edgeStyle=orthogonalEdgeStyle;rounded=0;orthogonalLoop=1;jettySize=auto;html=1;entryX=0;entryY=0.5;entryDx=0;entryDy=0;exitX=1;exitY=0.5;exitDx=0;exitDy=0;" parent="1" source="QhaAmGKr-HtIMkLcAXi7-22" target="QhaAmGKr-HtIMkLcAXi7-30" edge="1">
          <mxGeometry relative="1" as="geometry">
            <mxPoint x="430" y="730" as="sourcePoint" />
            <mxPoint x="540" y="730" as="targetPoint" />
          </mxGeometry>
        </mxCell>
        <mxCell id="QhaAmGKr-HtIMkLcAXi7-45" value="" style="edgeStyle=orthogonalEdgeStyle;rounded=0;orthogonalLoop=1;jettySize=auto;html=1;entryX=0;entryY=0.5;entryDx=0;entryDy=0;exitX=1;exitY=0.5;exitDx=0;exitDy=0;" parent="1" source="QhaAmGKr-HtIMkLcAXi7-22" target="QhaAmGKr-HtIMkLcAXi7-33" edge="1">
          <mxGeometry relative="1" as="geometry">
            <mxPoint x="460" y="835" as="sourcePoint" />
            <mxPoint x="570" y="750" as="targetPoint" />
          </mxGeometry>
        </mxCell>
        <mxCell id="QhaAmGKr-HtIMkLcAXi7-46" value="" style="edgeStyle=orthogonalEdgeStyle;rounded=0;orthogonalLoop=1;jettySize=auto;html=1;entryX=0;entryY=0.5;entryDx=0;entryDy=0;exitX=1;exitY=0.5;exitDx=0;exitDy=0;" parent="1" source="QhaAmGKr-HtIMkLcAXi7-22" target="QhaAmGKr-HtIMkLcAXi7-42" edge="1">
          <mxGeometry relative="1" as="geometry">
            <mxPoint x="460" y="850" as="sourcePoint" />
            <mxPoint x="570" y="940" as="targetPoint" />
          </mxGeometry>
        </mxCell>
        <mxCell id="QhaAmGKr-HtIMkLcAXi7-47" value="코인 결제" style="rounded=0;whiteSpace=wrap;html=1;" parent="1" vertex="1">
          <mxGeometry x="720" y="940" width="120" height="60" as="geometry" />
        </mxCell>
        <mxCell id="QhaAmGKr-HtIMkLcAXi7-48" value="코인 내역" style="rounded=0;whiteSpace=wrap;html=1;" parent="1" vertex="1">
          <mxGeometry x="720" y="1030" width="120" height="60" as="geometry" />
        </mxCell>
        <mxCell id="QhaAmGKr-HtIMkLcAXi7-49" value="코인 환급" style="rounded=0;whiteSpace=wrap;html=1;" parent="1" vertex="1">
          <mxGeometry x="720" y="1120" width="120" height="60" as="geometry" />
        </mxCell>
        <mxCell id="QhaAmGKr-HtIMkLcAXi7-53" value="문의내역" style="rounded=0;whiteSpace=wrap;html=1;" parent="1" vertex="1">
          <mxGeometry x="490" y="1470" width="120" height="60" as="geometry" />
        </mxCell>
        <mxCell id="QhaAmGKr-HtIMkLcAXi7-54" value="자주묻는 질문" style="rounded=0;whiteSpace=wrap;html=1;" parent="1" vertex="1">
          <mxGeometry x="490" y="1550" width="120" height="60" as="geometry" />
        </mxCell>
        <mxCell id="QhaAmGKr-HtIMkLcAXi7-55" value="공지사항" style="rounded=0;whiteSpace=wrap;html=1;" parent="1" vertex="1">
          <mxGeometry x="490" y="1630" width="120" height="60" as="geometry" />
        </mxCell>
        <mxCell id="QhaAmGKr-HtIMkLcAXi7-56" value="1:1 문의" style="rounded=0;whiteSpace=wrap;html=1;" parent="1" vertex="1">
          <mxGeometry x="490" y="1710" width="120" height="60" as="geometry" />
        </mxCell>
        <mxCell id="QhaAmGKr-HtIMkLcAXi7-57" value="관리자페이지" style="rounded=0;whiteSpace=wrap;html=1;" parent="1" vertex="1">
          <mxGeometry x="270" y="1280" width="120" height="60" as="geometry" />
        </mxCell>
        <mxCell id="QhaAmGKr-HtIMkLcAXi7-58" style="edgeStyle=orthogonalEdgeStyle;rounded=0;orthogonalLoop=1;jettySize=auto;html=1;entryX=0;entryY=0.5;entryDx=0;entryDy=0;exitX=1;exitY=0.5;exitDx=0;exitDy=0;" parent="1" source="QhaAmGKr-HtIMkLcAXi7-1" target="QhaAmGKr-HtIMkLcAXi7-57" edge="1">
          <mxGeometry relative="1" as="geometry">
            <mxPoint x="240" y="1520" as="sourcePoint" />
            <mxPoint x="370" y="2790" as="targetPoint" />
            <Array as="points">
              <mxPoint x="190" y="250" />
              <mxPoint x="190" y="1310" />
            </Array>
          </mxGeometry>
        </mxCell>
        <mxCell id="QhaAmGKr-HtIMkLcAXi7-59" value="회원관리 대시보드" style="rounded=0;whiteSpace=wrap;html=1;" parent="1" vertex="1">
          <mxGeometry x="490" y="1150" width="120" height="60" as="geometry" />
        </mxCell>
        <mxCell id="QhaAmGKr-HtIMkLcAXi7-60" value="퀘스트 대시보드" style="rounded=0;whiteSpace=wrap;html=1;" parent="1" vertex="1">
          <mxGeometry x="490" y="1230" width="120" height="60" as="geometry" />
        </mxCell>
        <mxCell id="QhaAmGKr-HtIMkLcAXi7-61" value="사용자 문의 답변" style="rounded=0;whiteSpace=wrap;html=1;" parent="1" vertex="1">
          <mxGeometry x="490" y="1390" width="120" height="60" as="geometry" />
        </mxCell>
        <mxCell id="QhaAmGKr-HtIMkLcAXi7-62" value="코인 관리" style="rounded=0;whiteSpace=wrap;html=1;" parent="1" vertex="1">
          <mxGeometry x="490" y="1310" width="120" height="60" as="geometry" />
        </mxCell>
        <mxCell id="QhaAmGKr-HtIMkLcAXi7-63" style="edgeStyle=orthogonalEdgeStyle;rounded=0;orthogonalLoop=1;jettySize=auto;html=1;entryX=0;entryY=0.5;entryDx=0;entryDy=0;" parent="1" source="QhaAmGKr-HtIMkLcAXi7-57" target="QhaAmGKr-HtIMkLcAXi7-59" edge="1">
          <mxGeometry relative="1" as="geometry">
            <mxPoint x="680" y="1170" as="sourcePoint" />
            <mxPoint x="780" y="1080" as="targetPoint" />
          </mxGeometry>
        </mxCell>
        <mxCell id="QhaAmGKr-HtIMkLcAXi7-64" style="edgeStyle=orthogonalEdgeStyle;rounded=0;orthogonalLoop=1;jettySize=auto;html=1;entryX=0;entryY=0.5;entryDx=0;entryDy=0;" parent="1" target="QhaAmGKr-HtIMkLcAXi7-60" edge="1">
          <mxGeometry relative="1" as="geometry">
            <mxPoint x="390" y="1310" as="sourcePoint" />
            <mxPoint x="540" y="1310" as="targetPoint" />
          </mxGeometry>
        </mxCell>
        <mxCell id="QhaAmGKr-HtIMkLcAXi7-65" style="edgeStyle=orthogonalEdgeStyle;rounded=0;orthogonalLoop=1;jettySize=auto;html=1;entryX=0;entryY=0.5;entryDx=0;entryDy=0;exitX=1;exitY=0.5;exitDx=0;exitDy=0;" parent="1" source="QhaAmGKr-HtIMkLcAXi7-57" target="QhaAmGKr-HtIMkLcAXi7-62" edge="1">
          <mxGeometry relative="1" as="geometry">
            <mxPoint x="430" y="1390" as="sourcePoint" />
            <mxPoint x="530" y="1340" as="targetPoint" />
          </mxGeometry>
        </mxCell>
        <mxCell id="QhaAmGKr-HtIMkLcAXi7-66" style="edgeStyle=orthogonalEdgeStyle;rounded=0;orthogonalLoop=1;jettySize=auto;html=1;entryX=0;entryY=0.5;entryDx=0;entryDy=0;exitX=1;exitY=0.5;exitDx=0;exitDy=0;" parent="1" source="QhaAmGKr-HtIMkLcAXi7-57" target="QhaAmGKr-HtIMkLcAXi7-61" edge="1">
          <mxGeometry relative="1" as="geometry">
            <mxPoint x="450" y="1360" as="sourcePoint" />
            <mxPoint x="550" y="1390" as="targetPoint" />
          </mxGeometry>
        </mxCell>
        <mxCell id="QhaAmGKr-HtIMkLcAXi7-67" style="edgeStyle=orthogonalEdgeStyle;rounded=0;orthogonalLoop=1;jettySize=auto;html=1;entryX=0;entryY=0.5;entryDx=0;entryDy=0;exitX=1;exitY=0.5;exitDx=0;exitDy=0;" parent="1" source="QhaAmGKr-HtIMkLcAXi7-6" target="QhaAmGKr-HtIMkLcAXi7-53" edge="1">
          <mxGeometry relative="1" as="geometry">
            <mxPoint x="450" y="1460" as="sourcePoint" />
            <mxPoint x="550" y="1490" as="targetPoint" />
          </mxGeometry>
        </mxCell>
        <mxCell id="QhaAmGKr-HtIMkLcAXi7-68" style="edgeStyle=orthogonalEdgeStyle;rounded=0;orthogonalLoop=1;jettySize=auto;html=1;entryX=0;entryY=0.5;entryDx=0;entryDy=0;exitX=1;exitY=0.5;exitDx=0;exitDy=0;" parent="1" source="QhaAmGKr-HtIMkLcAXi7-6" target="QhaAmGKr-HtIMkLcAXi7-54" edge="1">
          <mxGeometry relative="1" as="geometry">
            <mxPoint x="460" y="1690" as="sourcePoint" />
            <mxPoint x="560" y="1580" as="targetPoint" />
          </mxGeometry>
        </mxCell>
        <mxCell id="QhaAmGKr-HtIMkLcAXi7-69" style="edgeStyle=orthogonalEdgeStyle;rounded=0;orthogonalLoop=1;jettySize=auto;html=1;entryX=0;entryY=0.5;entryDx=0;entryDy=0;exitX=1;exitY=0.5;exitDx=0;exitDy=0;" parent="1" source="QhaAmGKr-HtIMkLcAXi7-6" target="QhaAmGKr-HtIMkLcAXi7-55" edge="1">
          <mxGeometry relative="1" as="geometry">
            <mxPoint x="450" y="1630" as="sourcePoint" />
            <mxPoint x="550" y="1600" as="targetPoint" />
          </mxGeometry>
        </mxCell>
        <mxCell id="QhaAmGKr-HtIMkLcAXi7-70" style="edgeStyle=orthogonalEdgeStyle;rounded=0;orthogonalLoop=1;jettySize=auto;html=1;entryX=0;entryY=0.5;entryDx=0;entryDy=0;exitX=1;exitY=0.5;exitDx=0;exitDy=0;" parent="1" source="QhaAmGKr-HtIMkLcAXi7-6" target="QhaAmGKr-HtIMkLcAXi7-56" edge="1">
          <mxGeometry relative="1" as="geometry">
            <mxPoint x="660" y="1640" as="sourcePoint" />
            <mxPoint x="760" y="1690" as="targetPoint" />
          </mxGeometry>
        </mxCell>
      </root>
    </mxGraphModel>
  </diagram>
</mxfile>
